<?xml version="1.0" encoding="UTF-8" standalone="no"?>
<svg width="20px" height="10px" viewBox="0 0 10 8" version="1.1" xmlns="http://www.w3.org/2000/svg" xmlns:xlink="http://www.w3.org/1999/xlink" xmlns:sketch="http://www.bohemiancoding.com/sketch/ns">
    <!-- Generator: Sketch 3.3.2 (12043) - http://www.bohemiancoding.com/sketch -->
    <title>EMAIL</title>
    <desc>Created with Sketch.</desc>
    <defs></defs>
    <g id="Page-1" stroke="#777" stroke-width="0" fill="none" fill-rule="evenodd" sketch:type="MSPage">
        <g id="Edit-Survey-3" stroke="#777" stroke-width="1" sketch:type="MSArtboardGroup" transform="translate(-849.000000, -514.000000)" fill="none">
            <g id="EMAIL" sketch:type="MSLayerGroup" transform="translate(849.000000, 514.000000)">
                <path d="M0.786785714,0.424421053 L4.37035714,3.35263158 C4.53285714,3.48526316 4.75678571,3.54421053 4.97428571,3.53315789 C5.19142857,3.54421053 5.41535714,3.48563158 5.57785714,3.35263158 L9.16142857,0.424421053 C9.44857143,0.191210526 9.38357143,0 9.01928571,0 L4.97464286,0 L0.93,0 C0.565357143,0 0.500357143,0.191210526 0.786785714,0.424421053 L0.786785714,0.424421053 Z" id="Shape" sketch:type="MSShapeGroup"></path>
                <path d="M9.42035714,1.197 L5.50428571,4.26410526 C5.35785714,4.37757895 5.16607143,4.43284211 4.975,4.43026316 C4.78357143,4.43284211 4.59178571,4.37721053 4.44535714,4.26410526 L0.528571429,1.197 C0.237857143,0.969684211 0,1.09163158 0,1.46778947 L0,6.50005263 C0,6.87621053 0.298571429,7.18421053 0.663214286,7.18421053 L4.97428571,7.18421053 L9.28571429,7.18421053 C9.65035714,7.18421053 9.94892857,6.87621053 9.94892857,6.50005263 L9.94892857,1.46778947 C9.94892857,1.09163158 9.71107143,0.969684211 9.42035714,1.197 L9.42035714,1.197 Z" id="Shape" sketch:type="MSShapeGroup"></path>
            </g>
        </g>
    </g>
</svg>